<?xml version="1.0" encoding="UTF-8" standalone="no"?>
<!-- Created with Inkscape (http://www.inkscape.org/) -->

<svg
   width="43.15926mm"
   height="64.207115mm"
   viewBox="0 0 43.15926 64.207115"
   version="1.1"
   id="svg1"
   xmlns="http://www.w3.org/2000/svg"
   xmlns:svg="http://www.w3.org/2000/svg">
  <defs
     id="defs1">
    <clipPath
       clipPathUnits="userSpaceOnUse"
       id="clipPath186">
      <path
         d="M 0,500 H 500 V 0 H 0 Z"
         transform="translate(-89.696305,-95.290005)"
         id="path186" />
    </clipPath>
    <clipPath
       clipPathUnits="userSpaceOnUse"
       id="clipPath184">
      <path
         d="M 0,500 H 500 V 0 H 0 Z"
         transform="translate(-82.5898,-102.21581)"
         id="path184" />
    </clipPath>
    <clipPath
       clipPathUnits="userSpaceOnUse"
       id="clipPath182">
      <path
         d="M 0,500 H 500 V 0 H 0 Z"
         transform="translate(-79.195802,-109.7363)"
         id="path182" />
    </clipPath>
    <clipPath
       clipPathUnits="userSpaceOnUse"
       id="clipPath180">
      <path
         d="M 0,500 H 500 V 0 H 0 Z"
         transform="translate(-44.333001,-219.93161)"
         id="path180" />
    </clipPath>
    <clipPath
       clipPathUnits="userSpaceOnUse"
       id="clipPath178">
      <path
         d="M 0,500 H 500 V 0 H 0 Z"
         transform="translate(-50.695801,-233.87111)"
         id="path178" />
    </clipPath>
    <clipPath
       clipPathUnits="userSpaceOnUse"
       id="clipPath176">
      <path
         d="M 0,500 H 500 V 0 H 0 Z"
         transform="translate(-64.299802,-248.58981)"
         id="path176" />
    </clipPath>
    <clipPath
       clipPathUnits="userSpaceOnUse"
       id="clipPath174">
      <path
         d="M 0,500 H 500 V 0 H 0 Z"
         transform="translate(-103.82811,-257.16801)"
         id="path174" />
    </clipPath>
    <clipPath
       clipPathUnits="userSpaceOnUse"
       id="clipPath172">
      <path
         d="M 0,500 H 500 V 0 H 0 Z"
         transform="translate(-111.127,-248.21481)"
         id="path172" />
    </clipPath>
    <clipPath
       clipPathUnits="userSpaceOnUse"
       id="clipPath170">
      <path
         d="M 0,500 H 500 V 0 H 0 Z"
         transform="translate(-132.63231,-244.26761)"
         id="path170" />
    </clipPath>
    <clipPath
       clipPathUnits="userSpaceOnUse"
       id="clipPath168">
      <path
         d="M 0,500 H 500 V 0 H 0 Z"
         transform="translate(-137.68551,-226.59081)"
         id="path168" />
    </clipPath>
    <clipPath
       clipPathUnits="userSpaceOnUse"
       id="clipPath188">
      <path
         d="M 0,500 H 500 V 0 H 0 Z"
         transform="translate(-108.5151,-197.79791)"
         id="path188" />
    </clipPath>
    <clipPath
       clipPathUnits="userSpaceOnUse"
       id="clipPath190">
      <path
         d="M 0,500 H 500 V 0 H 0 Z"
         transform="translate(-119.3667,-178.64261)"
         id="path190" />
    </clipPath>
    <clipPath
       clipPathUnits="userSpaceOnUse"
       id="clipPath192">
      <path
         d="M 0,500 H 500 V 0 H 0 Z"
         transform="translate(-94.8223,-162.2646)"
         id="path192" />
    </clipPath>
    <clipPath
       clipPathUnits="userSpaceOnUse"
       id="clipPath166">
      <path
         d="M 0,500 H 500 V 0 H 0 Z"
         transform="translate(-100.63041,-204.47661)"
         id="path166" />
    </clipPath>
  </defs>
  <g
     id="layer1"
     transform="translate(-114.56457,-71.4375)">
    <path
       id="path165"
       d="m 0,0 c -3.623,-1.727 -6.985,-3.861 -10.199,-6.22 -3.205,-2.366 -6.217,-5.002 -8.977,-7.888 -5.513,-5.766 -9.989,-12.627 -12.676,-20.215 -2.728,-7.572 -3.598,-15.776 -2.839,-23.777 0.728,-8.019 2.966,-15.829 6.034,-23.219 l -0.07,0.215 c 0.652,-2.642 1.544,-5.022 2.557,-7.426 1.009,-2.386 2.153,-4.709 3.404,-6.971 2.491,-4.53 5.426,-8.8 8.643,-12.837 3.248,-4.013 6.777,-7.798 10.584,-11.281 3.796,-3.494 7.829,-6.728 12.047,-9.694 l 2.038,2.96 c -4.148,2.805 -8.119,5.871 -11.862,9.191 -3.755,3.309 -7.243,6.914 -10.461,10.743 -3.187,3.852 -6.107,7.935 -8.594,12.269 -1.249,2.163 -2.394,4.384 -3.407,6.661 -1.008,2.255 -1.932,4.641 -2.541,6.925 l -0.038,0.143 -0.031,0.071 c -3.122,7.157 -5.428,14.704 -6.272,22.454 -0.872,7.731 -0.176,15.659 2.334,23.043 2.471,7.399 6.706,14.172 12.017,19.931 2.659,2.882 5.578,5.531 8.697,7.922 3.118,2.379 6.435,4.563 9.928,6.306 z"
       style="fill:#0e3c05;fill-opacity:1;fill-rule:nonzero;stroke:none"
       transform="matrix(0.35277776,0,0,-0.35277776,144.65162,90.025854)"
       clip-path="url(#clipPath166)" />
    <path
       id="path167"
       d="m 0,0 c -1.729,-1.017 -3.405,-1.971 -5.094,-2.909 l -4.996,-2.811 -9.935,-5.533 c -0.827,-0.462 -1.647,-0.936 -2.459,-1.428 -0.825,-0.469 -1.639,-0.962 -2.446,-1.469 -1.601,-1.04 -3.218,-2.073 -4.803,-3.19 -1.598,-1.095 -3.223,-2.158 -4.859,-3.217 -1.639,-1.057 -3.378,-1.894 -5.01,-3.013 3.805,0.896 7.567,1.972 11.38,3.041 3.785,1.129 7.471,2.58 10.863,4.592 3.408,1.975 6.675,4.224 9.667,6.832 1.482,1.324 2.92,2.696 4.229,4.207 C -2.16,-3.396 -0.917,-1.801 0,0"
       style="fill:#067042;fill-opacity:1;fill-rule:nonzero;stroke:none"
       transform="matrix(0.35277776,0,0,-0.35277776,157.72383,82.224456)"
       clip-path="url(#clipPath168)" />
    <path
       id="path169"
       d="m 0,0 c -4.94,-1.701 -9.371,-4.282 -13.583,-7.145 -4.189,-2.899 -8.105,-6.194 -11.675,-9.875 -3.562,-3.68 -6.793,-7.755 -9.377,-12.286 -1.291,-2.258 -2.407,-4.644 -3.238,-7.136 -0.817,-2.491 -1.408,-5.083 -1.404,-7.705 2.962,4.275 5.99,7.954 9.244,11.559 3.215,3.602 6.569,7.071 9.939,10.571 3.377,3.494 6.79,6.995 10.178,10.597 C -6.541,-7.792 -3.168,-4.127 0,0"
       style="fill:#067042;fill-opacity:1;fill-rule:nonzero;stroke:none"
       transform="matrix(0.35277776,0,0,-0.35277776,155.94118,75.988473)"
       clip-path="url(#clipPath170)" />
    <path
       id="path171"
       d="M 0,0 C -2.284,-1.45 -4.263,-3.269 -6.137,-5.158 L -7.513,-6.606 C -7.958,-7.1 -8.381,-7.608 -8.817,-8.11 c -0.879,-1.001 -1.678,-2.056 -2.48,-3.113 -3.167,-4.252 -5.838,-8.842 -8.099,-13.612 l -1.581,-3.629 c -0.512,-1.216 -0.971,-2.451 -1.41,-3.694 -0.905,-2.477 -1.663,-5.004 -2.299,-7.563 -0.345,-1.27 -0.626,-2.559 -0.857,-3.862 -0.247,-1.297 -0.462,-2.6 -0.662,-3.903 -0.338,-2.625 -0.529,-5.281 -0.505,-7.963 1.489,2.27 2.669,4.597 3.875,6.9 0.61,1.149 1.204,2.298 1.768,3.452 0.292,0.576 0.558,1.157 0.832,1.736 0.287,0.573 0.59,1.14 0.864,1.716 0.566,1.148 1.119,2.295 1.642,3.454 l 1.646,3.434 c 0.543,1.146 1.029,2.315 1.607,3.441 l 1.591,3.44 6.416,13.751 C -4.324,-9.503 -2.186,-4.887 0,0"
       style="fill:#067042;fill-opacity:1;fill-rule:nonzero;stroke:none"
       transform="matrix(0.35277776,0,0,-0.35277776,148.35458,74.595989)"
       clip-path="url(#clipPath172)" />
    <path
       id="path173"
       d="m 0,0 c -5.319,-4.19 -9.638,-9.472 -13.366,-15.072 -3.723,-5.624 -6.773,-11.705 -9.096,-18.061 -1.242,-3.148 -2.1,-6.437 -2.996,-9.694 -0.345,-1.66 -0.71,-3.313 -1.016,-4.977 -0.143,-0.834 -0.355,-1.65 -0.433,-2.497 l -0.286,-2.524 c -0.866,-6.699 -0.572,-13.543 0.644,-20.144 1.782,6.539 3.014,12.874 4.904,19.065 0.78,3.121 1.867,6.154 2.749,9.225 l 1.559,4.54 c 0.259,0.756 0.476,1.527 0.759,2.275 l 0.857,2.241 c 2.188,6.01 4.623,11.941 7.286,17.829 C -5.797,-11.881 -2.978,-6.035 0,0"
       style="fill:#067042;fill-opacity:1;fill-rule:nonzero;stroke:none"
       transform="matrix(0.35277776,0,0,-0.35277776,145.7797,71.437499)"
       clip-path="url(#clipPath174)" />
    <path
       id="path175"
       d="m 0,0 c 0.371,-6.479 0.963,-12.728 1.513,-18.979 0.579,-6.237 1.17,-12.433 1.687,-18.632 l 0.232,-2.322 0.166,-2.326 0.408,-4.65 0.738,-9.331 c 0.596,-6.247 0.889,-12.504 1.811,-18.962 2.083,6.141 3.317,12.52 3.841,18.934 0.348,3.21 0.37,6.427 0.422,9.648 -0.064,3.216 -0.137,6.439 -0.46,9.641 -0.544,6.412 -1.652,12.772 -3.3,18.992 C 5.375,-11.785 3.259,-5.648 0,0"
       style="fill:#067042;fill-opacity:1;fill-rule:nonzero;stroke:none"
       transform="matrix(0.35277776,0,0,-0.35277776,131.83499,74.463698)"
       clip-path="url(#clipPath176)" />
    <path
       id="path177"
       d="m 0,0 c -0.924,-3.582 -1.206,-7.275 -1.239,-10.951 -0.019,-3.682 0.27,-7.371 0.871,-11.019 0.613,-3.643 1.446,-7.269 2.642,-10.788 0.535,-1.782 1.258,-3.499 1.942,-5.229 0.33,-0.871 0.748,-1.705 1.145,-2.548 0.404,-0.841 0.791,-1.689 1.208,-2.521 l 0.087,-0.172 0.061,-0.096 c 0.275,-0.432 0.62,-1.023 0.921,-1.564 0.314,-0.553 0.604,-1.123 0.908,-1.691 0.614,-1.131 1.164,-2.301 1.723,-3.471 1.105,-2.346 2.073,-4.755 2.963,-7.206 0.902,-2.455 1.577,-4.974 2.186,-7.56 0.606,-2.598 0.899,-5.249 1.18,-8.06 1.055,2.584 1.753,5.397 1.964,8.249 0.212,2.846 0.154,5.755 -0.296,8.587 -0.408,2.844 -1.1,5.642 -2.002,8.368 -0.456,1.361 -0.978,2.7 -1.539,4.029 -0.276,0.666 -0.591,1.319 -0.908,1.974 -0.329,0.669 -0.634,1.277 -1.051,2.021 l 0.148,-0.269 c -1.406,3.135 -2.81,6.271 -4.002,9.507 -0.648,1.598 -1.176,3.243 -1.782,4.867 -0.518,1.648 -1.139,3.277 -1.613,4.95 -1.067,3.319 -2.018,6.695 -2.924,10.118 C 1.68,-7.045 0.839,-3.582 0,0"
       style="fill:#067042;fill-opacity:1;fill-rule:nonzero;stroke:none"
       transform="matrix(0.35277776,0,0,-0.35277776,127.0358,79.656127)"
       clip-path="url(#clipPath178)" />
    <path
       id="path179"
       d="m 0,0 c -1.309,-6.977 -1.398,-14.056 -0.97,-21.078 0.46,-7.026 1.595,-14.021 3.37,-20.876 0.481,-1.705 0.946,-3.414 1.489,-5.104 0.537,-1.689 1.136,-3.364 1.749,-5.03 1.285,-3.315 2.739,-6.572 4.414,-9.718 1.709,-3.132 3.615,-6.158 5.767,-8.996 1.132,-1.386 2.216,-2.788 3.479,-4.053 0.623,-0.638 1.212,-1.293 1.876,-1.888 0.672,-0.59 1.315,-1.193 1.999,-1.755 -0.719,1.637 -1.537,3.162 -2.225,4.76 -0.736,1.563 -1.387,3.161 -2.078,4.717 -1.302,3.166 -2.517,6.325 -3.652,9.507 -1.094,3.201 -2.154,6.4 -3.128,9.63 -0.458,1.627 -0.98,3.229 -1.401,4.866 -0.482,1.618 -0.899,3.257 -1.338,4.89 C 7.647,-33.58 6.083,-26.969 4.606,-20.283 3.105,-13.596 1.668,-6.868 0,0"
       style="fill:#067042;fill-opacity:1;fill-rule:nonzero;stroke:none"
       transform="matrix(0.35277776,0,0,-0.35277776,124.79115,84.573673)"
       clip-path="url(#clipPath180)" />
    <path
       id="path181"
       d="m 0,0 c -4.086,7.233 -8.542,14.098 -13.081,20.886 -4.56,6.769 -9.211,13.443 -13.892,20.076 l -14.09,19.833 c -4.667,6.64 -9.353,13.221 -13.798,20.225 0.452,-2.019 1.002,-4.026 1.574,-6.041 0.642,-1.976 1.392,-3.911 2.126,-5.866 0.745,-1.95 1.647,-3.806 2.503,-5.703 0.847,-1.902 1.802,-3.737 2.774,-5.564 1.889,-3.696 4.039,-7.217 6.173,-10.757 l 3.367,-5.19 c 1.133,-1.723 2.328,-3.399 3.505,-5.088 4.757,-6.725 9.861,-13.186 15.296,-19.363 C -12.087,11.29 -6.381,5.336 0,0"
       style="fill:#067042;fill-opacity:1;fill-rule:nonzero;stroke:none"
       transform="matrix(0.35277776,0,0,-0.35277776,137.08997,123.44813)"
       clip-path="url(#clipPath182)" />
    <path
       id="path183"
       d="m 0,0 c -4.764,6.354 -9.887,12.259 -15.097,18.062 -5.225,5.785 -10.544,11.446 -15.938,17.017 -5.405,5.565 -10.813,11.093 -16.26,16.593 -5.451,5.524 -10.885,10.952 -16.065,16.943 0.687,-1.844 1.419,-3.718 2.28,-5.52 0.901,-1.766 1.847,-3.526 2.837,-5.258 1.047,-1.68 2.111,-3.356 3.204,-5.017 1.107,-1.644 2.284,-3.227 3.452,-4.826 4.754,-6.31 9.907,-12.286 15.384,-17.909 5.469,-5.637 11.193,-11.008 17.19,-16.071 C -12.996,8.975 -6.774,4.158 0,0"
       style="fill:#067042;fill-opacity:1;fill-rule:nonzero;stroke:none"
       transform="matrix(0.35277776,0,0,-0.35277776,138.28729,126.10119)"
       clip-path="url(#clipPath184)" />
    <path
       id="path185"
       d="m 0,0 -19.585,8.358 c -6.468,2.795 -12.872,5.659 -19.158,8.72 -6.285,3.064 -12.459,6.31 -18.426,9.923 -2.973,1.818 -5.924,3.694 -8.779,5.732 -2.877,2.016 -5.627,4.212 -8.404,6.504 3.802,-6.121 9.067,-11.309 14.782,-15.73 5.744,-4.419 11.992,-8.129 18.47,-11.276 6.481,-3.149 13.204,-5.744 20.063,-7.84 C -14.168,2.337 -7.163,0.687 0,0"
       style="fill:#067042;fill-opacity:1;fill-rule:nonzero;stroke:none"
       transform="matrix(0.35277776,0,0,-0.35277776,140.79431,128.54446)"
       clip-path="url(#clipPath186)" />
    <path
       id="path187"
       d="m 0,0 c -2.619,0.248 -5.247,-0.165 -7.795,-0.77 l -1.902,-0.522 c -0.635,-0.181 -1.235,-0.434 -1.858,-0.649 -1.252,-0.427 -2.444,-0.976 -3.628,-1.553 -4.735,-2.315 -9.008,-5.521 -12.732,-9.224 l -2.645,-2.912 c -0.437,-0.488 -0.858,-0.99 -1.237,-1.523 -0.39,-0.525 -0.791,-1.04 -1.166,-1.576 -1.589,-2.077 -2.885,-4.343 -4.113,-6.627 -0.653,-1.119 -1.15,-2.323 -1.646,-3.519 -0.5,-1.195 -0.968,-2.399 -1.418,-3.604 -0.416,-1.22 -0.721,-2.49 -1.031,-3.744 -0.308,-1.256 -0.562,-2.525 -0.76,-3.805 1.832,1.91 3.348,3.909 4.893,5.859 0.812,0.951 1.605,1.902 2.368,2.863 0.389,0.475 0.756,0.961 1.128,1.444 0.353,0.495 0.806,0.92 1.183,1.392 0.796,0.92 1.576,1.843 2.327,2.781 0.367,0.476 0.774,0.919 1.18,1.359 l 1.205,1.332 c 1.533,1.836 3.232,3.493 4.845,5.23 3.357,3.339 6.827,6.532 10.585,9.485 C -8.449,-5.322 -4.508,-2.551 0,0"
       style="fill:#067042;fill-opacity:1;fill-rule:nonzero;stroke:none"
       transform="matrix(0.35277776,0,0,-0.35277776,147.43317,92.38195)"
       clip-path="url(#clipPath188)" />
    <path
       id="path189"
       d="m 0,0 c -1.529,0.647 -3.142,1.095 -4.773,1.447 -1.633,0.362 -3.298,0.6 -4.978,0.731 -3.362,0.274 -6.791,0.112 -10.181,-0.491 -6.779,-1.18 -13.409,-4.287 -18.699,-8.965 -1.328,-1.193 -2.527,-2.38 -3.761,-3.776 -1.123,-1.341 -2.148,-2.695 -3.117,-4.107 -1.915,-2.829 -3.579,-5.844 -4.856,-9.063 -1.249,-3.221 -2.134,-6.661 -2.251,-10.187 -0.11,-3.502 0.628,-7.14 2.554,-9.923 -0.396,6.702 2.149,12.205 5.193,17.463 1.541,2.619 3.274,5.149 5.116,7.598 0.92,1.22 1.867,2.439 2.837,3.572 0.889,1.054 1.984,2.16 3.042,3.158 4.309,4.048 9.484,7.137 15.251,9.189 C -12.847,-1.336 -6.578,-0.181 0,0"
       style="fill:#067042;fill-opacity:1;fill-rule:nonzero;stroke:none"
       transform="matrix(0.35277776,0,0,-0.35277776,151.26137,99.139514)"
       clip-path="url(#clipPath190)" />
    <path
       id="path191"
       d="m 0,0 c -2.06,-0.011 -4.044,-0.609 -5.937,-1.368 -0.925,-0.416 -1.874,-0.837 -2.735,-1.38 -0.446,-0.253 -0.88,-0.526 -1.317,-0.8 -0.412,-0.299 -0.835,-0.592 -1.238,-0.908 -3.273,-2.486 -5.96,-5.722 -7.986,-9.284 l -1.345,-2.757 c -0.451,-0.92 -0.743,-1.896 -1.074,-2.856 -0.694,-1.913 -1.074,-3.905 -1.378,-5.889 -0.192,-0.985 -0.219,-1.994 -0.251,-2.995 -0.034,-1.001 -0.035,-2 -0.019,-2.992 0.164,-1.998 0.478,-3.985 1.014,-5.928 1.027,1.807 1.738,3.588 2.468,5.328 0.405,0.86 0.793,1.713 1.148,2.563 0.36,0.85 0.668,1.705 1.088,2.516 0.388,0.821 0.76,1.639 1.099,2.462 0.331,0.828 0.785,1.594 1.157,2.392 0.705,1.618 1.597,3.113 2.375,4.667 1.717,3.011 3.542,5.928 5.658,8.761 C -5.155,-5.616 -2.841,-2.866 0,0"
       style="fill:#067042;fill-opacity:1;fill-rule:nonzero;stroke:none"
       transform="matrix(0.35277776,0,0,-0.35277776,142.60265,104.91731)"
       clip-path="url(#clipPath192)" />
  </g>
</svg>
