<svg width="928" height="510" viewBox="0 0 928 510" fill="none" xmlns="http://www.w3.org/2000/svg">
<g id="404">
<path id="404_2" d="M322.8 281.4C325.467 281.4 326.8 291.533 326.8 311.8C326.8 331.8 325.467 341.8 322.8 341.8L296.4 342.2V392.6C296.4 395.533 290.933 397.667 280 399C269.067 400.333 259.6 401 251.6 401L235.2 400.2C221.6 399.133 214.8 396.733 214.8 393V343.4H135.2C128.267 336.467 122 327.533 116.4 316.6C110.8 305.4 108 297.4 108 292.6C108 287.533 108.8 283.533 110.4 280.6L198 125.4C199.067 123.267 207.2 121.667 222.4 120.6C237.867 119.533 254 119 270.8 119C287.6 119 296 119.667 296 121L296.4 281.4H322.8ZM226.4 281.8V198.2L179.6 281.8H226.4ZM470.663 405C437.329 405 409.996 392.733 388.663 368.2C367.596 343.667 357.063 307.8 357.063 260.6C357.063 213.4 367.729 177.8 389.063 153.8C410.396 129.533 437.863 117.4 471.463 117.4C505.329 117.4 532.663 129.4 553.463 153.4C574.263 177.4 584.663 213.533 584.663 261.8C584.663 310.067 573.996 346.067 552.663 369.8C531.596 393.267 504.263 405 470.663 405ZM470.663 194.2C460.529 194.2 451.863 200.067 444.663 211.8C437.729 223.267 434.263 239.667 434.263 261C434.263 282.333 437.596 298.733 444.263 310.2C451.196 321.4 459.996 327 470.663 327C481.596 327 490.396 321.267 497.063 309.8C503.996 298.333 507.463 281.933 507.463 260.6C507.463 239.267 503.863 222.867 496.663 211.4C489.729 199.933 481.063 194.2 470.663 194.2ZM817.331 281.4C819.998 281.4 821.331 291.533 821.331 311.8C821.331 331.8 819.998 341.8 817.331 341.8L790.931 342.2V392.6C790.931 395.533 785.465 397.667 774.531 399C763.598 400.333 754.131 401 746.131 401L729.731 400.2C716.131 399.133 709.331 396.733 709.331 393V343.4H629.731C622.798 336.467 616.531 327.533 610.931 316.6C605.331 305.4 602.531 297.4 602.531 292.6C602.531 287.533 603.331 283.533 604.931 280.6L692.531 125.4C693.598 123.267 701.731 121.667 716.931 120.6C732.398 119.533 748.531 119 765.331 119C782.131 119 790.531 119.667 790.531 121L790.931 281.4H817.331ZM720.931 281.8V198.2L674.131 281.8H720.931Z" fill="black"/>
<g id="group1">
<path id="l1" d="M139 224C110.525 213.003 49.2595 186.406 32 168C41.2254 184.496 75.5409 218.791 139 224Z" fill="#25885D" stroke="#25885D"/>
<path id="l1_2" d="M215.957 390.493C191.612 408.907 136.737 446.98 112 451.958C130.882 452.803 178.107 441.695 215.957 390.493Z" fill="#25885D" stroke="#25885D"/>
<path id="l1_3" d="M297 160.5C317.225 152.645 360.741 133.647 373 120.5C366.447 132.283 342.074 156.779 297 160.5Z" fill="#25885D" stroke="#25885D"/>
<path id="l1_4" d="M412.276 136.491C400.566 118.225 373.317 79.3401 358 69.9314C370.848 74.0175 399.691 93.05 412.276 136.491Z" fill="#25885D" stroke="#25885D"/>
<path id="leaf1" d="M327.12 6.49838C314.565 49.1784 281.142 99.1969 266 118.871C292.077 55.9981 292.507 46.0449 327.12 6.49838Z" fill="#4DBC8B"/>
<path id="leaf1_2" d="M193.899 252.122C201.625 258.337 205.262 272.63 206.115 279C196.929 267.004 194.404 266.49 193.899 252.122Z" fill="#067042"/>
<path id="Vector 19" d="M297 122.474C328.854 123.094 361.076 105.748 373.205 96.9971C355.973 100.161 316.608 109.686 297 122.474Z" fill="#30BF05"/>
<path id="Vector 20" d="M225.897 120.868C223.912 89.0699 203.99 58.3735 194.277 47C198.839 63.9156 211.549 102.371 225.897 120.868Z" fill="#30BF05"/>
<path id="Vector 21" d="M181.472 159.231C169.821 129.578 141.438 106.479 128.703 98.6367C138.237 113.335 162.138 146.032 181.472 159.231Z" fill="#637E83"/>
<path id="leaf1_3" d="M200.15 125.983C190.294 91.4528 161.943 51.6068 149 36C170.328 86.6151 170.383 94.7505 200.15 125.983Z" fill="#067042"/>
<path id="Vector 22" d="M210.089 478.895C226.272 451.451 226.984 414.863 225.317 400C219.611 416.565 208.577 455.534 210.089 478.895Z" fill="#30BF05"/>
<path id="leaf1_4" d="M0.91011 373.747C35.7928 346.135 91.9533 324.573 115.673 317.243C58.0946 353.543 51.9996 361.424 0.91011 373.747Z" fill="#4DBC8B"/>
<path id="l1_5" d="M112 300C83.5248 289.003 22.2595 262.406 5 244C14.2254 260.496 48.5409 294.791 112 300Z" fill="#25885D"/>
<path id="Vector 34" d="M136 390C166.3 380.154 191.065 353.213 199.66 340.972C184.414 349.605 150.339 371.495 136 390Z" fill="#7BB9C4"/>
<path id="Vector 33" d="M323.897 463.868C321.912 432.07 301.99 401.373 292.277 390C296.839 406.916 309.549 445.371 323.897 463.868Z" fill="#497A83"/>
<path id="Vector 32" d="M150.897 210.868C148.912 179.07 128.99 148.373 119.277 137C123.839 153.916 136.549 192.371 150.897 210.868Z" fill="#7BB9C4"/>
<path id="Vector 31" d="M124.848 261.034C96.2164 247.06 59.6862 249.227 45 252.057C61.962 256.443 101.678 264.378 124.848 261.034Z" fill="#30BF05"/>
<path id="Vector 20_2" d="M131.048 338.268C105.656 357.51 91.1026 391.086 87 405.469C98.569 392.312 123.575 360.452 131.048 338.268Z" fill="#30BF05"/>
<path id="Vector 30" d="M295.842 232.763C315.142 214.903 324.38 186.146 326.586 174C318.148 185.743 300.185 213.936 295.842 232.763Z" fill="#30BF05"/>
<path id="Vector 40" d="M372.008 187.989C360.716 175.934 341.964 169.747 334 168.161C341.535 173.512 359.687 184.97 372.008 187.989Z" fill="#36808D"/>
<path id="Vector 39" d="M215.666 280.119C225.109 261.574 224.308 236.979 222.728 227C219.635 238.168 213.892 264.428 215.666 280.119Z" fill="#4DBC8B"/>
</g>
<g id="group3">
<path id="leaf1_5" d="M709.284 124.369C686.245 93.0711 672.162 41.7488 668 20C696.705 72.0402 703.803 77.3844 709.284 124.369Z" fill="#067042"/>
<path id="leaf1_6" d="M792.787 194.357C837.253 195.744 894.083 215.476 916.939 225.168C849.523 215.787 839.783 217.88 792.787 194.357Z" fill="#067042"/>
<path id="leaf1_7" d="M912.223 240.573C872.222 260.046 812.741 269.039 788 271.102C852.033 248.019 859.679 241.632 912.223 240.573Z" fill="#36808D"/>
<path id="leaf1_8" d="M617.828 326.775C609.617 340.792 593.188 355.432 586 361C600.854 341.076 601.86 337.569 617.828 326.775Z" fill="#067042"/>
<path id="leaf1_9" d="M788.07 393.277C817.542 413.893 844.904 454.915 854.901 472.85C814.393 435.646 806.562 433.089 788.07 393.277Z" fill="#067042"/>
<path id="leaf1_10" d="M748.695 500.194C735.368 466.788 735.001 417.479 736.484 397C749.936 450.329 755.08 456.763 748.695 500.194Z" fill="#067042"/>
<path id="l1_6" d="M791 139C811.225 131.145 854.741 112.147 867 99C860.447 110.783 836.074 135.279 791 139Z" fill="#7BB9C4"/>
<path id="l1_7" d="M791 370.42C819.548 368.84 881.715 362.954 902.004 352.055C889.466 363.519 849.714 383.241 791 370.42Z" fill="#7BB9C4"/>
<path id="leaf1_11" d="M717.785 250.298C706.995 264.516 686.099 277.267 677 281.864C696.238 262.505 697.653 258.667 717.785 250.298Z" fill="#4DBC8B"/>
<path id="leaf1_12" d="M821.787 5.49724C811.622 48.8084 781.027 100.605 767 121.09C789.546 56.8659 789.423 46.9043 821.787 5.49724Z" fill="#067042"/>
<path id="Vector 44" d="M708.602 350.496C681.398 367.079 663.532 399.015 658 412.911C670.837 400.988 698.93 371.813 708.602 350.496Z" fill="#7BB9C4"/>
<path id="Vector 42" d="M791 173.722C834.374 172.775 892.276 148.423 915.805 136.365C889.61 141.432 827.977 155.997 791 173.722Z" fill="#30BF05"/>
<path id="Vector 40_2" d="M819 330.488C864.817 329.889 910.323 303.448 927.349 290.302C902.727 295.656 846.587 311.188 819 330.488Z" fill="#30BF05"/>
<path id="Vector 41" d="M662 452.018C689.11 438.068 707.529 409.554 713.35 397.041C700.437 407.391 672.09 432.878 662 452.018Z" fill="#30BF05"/>
<path id="Vector 43" d="M742.05 120.544C746.85 86.1483 732.264 49.1831 724.372 35C725.56 54.0297 730.759 97.78 742.05 120.544Z" fill="#30BF05"/>
</g>
<g id="group2">
<path id="l1_8" d="M382.958 358.493C367.265 370.362 331.895 394.902 315.951 398.111C328.121 398.656 358.561 391.496 382.958 358.493Z" fill="#25885D" stroke="#25885D"/>
<path id="l1_9" d="M459.116 401.764C446.482 422.146 417.371 465.529 402 476C414.59 471.472 443.638 450.285 459.116 401.764Z" fill="#7BB9C4"/>
<path id="l1_10" d="M560.098 42C533.44 58.6136 476.646 97.3457 462.74 119.365C468.896 100.819 496.987 59.3818 560.098 42Z" fill="#25885D" stroke="#25885D"/>
<path id="leaf1_13" d="M414.306 41.0873C426.938 69.1632 431.912 110.495 432.821 127.651C418.196 82.8763 413.938 77.454 414.306 41.0873Z" fill="#4DBC8B"/>
<path id="leaf1_14" d="M505.984 295.592C487.427 290.793 467.458 272.531 459.793 264C486.409 276.191 490.974 275.624 505.984 295.592Z" fill="#067042"/>
<path id="l1_11" d="M572 189C592.225 181.145 635.741 162.147 648 149C641.447 160.783 617.074 185.279 572 189Z" fill="#25885D"/>
<path id="l1_12" d="M356.792 268.404C342.533 265.557 311.612 258.049 302 250.788C307.688 257.808 326.609 271.159 356.792 268.404Z" fill="#4DBC8B"/>
<path id="l1_13" d="M648.411 377.816C626.887 375.078 580.071 367.153 565 357.355C574.204 367.207 603.773 385.091 648.411 377.816Z" fill="#4DBC8B"/>
<path id="leaf1_15" d="M610.875 420.724C582.012 414.585 547.236 395.017 533.456 386C576.361 400.058 582.965 399.837 610.875 420.724Z" fill="#067042"/>
<path id="leaf1_16" d="M489.805 200.173C478.853 213.275 455.371 220.85 445 223C465.449 206.852 466.582 202.758 489.805 200.173Z" fill="#067042"/>
<path id="leaf1_17" d="M364.341 504.423C373.138 460.813 402.087 408.078 415.461 387.162C394.949 452.064 395.386 462.017 364.341 504.423Z" fill="#4DBC8B"/>
<path id="leaf1_18" d="M762.239 476.638C761.408 448.27 772.298 411.374 777.847 396.472C774.263 439.741 776.041 445.869 762.239 476.638Z" fill="#4DBC8B"/>
<path id="leaf1_19" d="M667.498 96.0796C636.477 127.968 583.574 156.607 561 166.941C613.404 123.504 618.43 114.902 667.498 96.0796Z" fill="#7BB9C4"/>
<path id="Vector 35" d="M529.897 475.868C527.912 444.07 507.99 413.373 498.277 402C502.839 418.916 515.549 457.371 529.897 475.868Z" fill="#30BF05"/>
<path id="Vector 38" d="M537.842 140.763C571.473 109.642 587.568 59.5334 591.412 38.3693C576.709 58.8315 545.41 107.958 537.842 140.763Z" fill="#30BF05"/>
<path id="Vector 37" d="M586 235.735C609.952 224.882 627.797 200.513 633.726 189.685C622.011 198.163 596.066 219.242 586 235.735Z" fill="#30BF05"/>
<path id="Vector 36" d="M436.842 289.763C456.142 271.903 465.38 243.146 467.586 231C459.148 242.743 441.185 270.936 436.842 289.763Z" fill="#36808D"/>
</g>
</g>
</svg>
