<svg width="101" height="105" viewBox="0 0 101 105" fill="none" xmlns="http://www.w3.org/2000/svg">
<rect x="2" y="2" width="97" height="97" rx="8" stroke="black" stroke-width="4"/>
<path d="M62.8571 37.8571H68V43H62.8571V37.8571ZM57.7143 37.8571H62.8571V43H57.7143V37.8571ZM57.7143 32.7143H62.8571V37.8571H57.7143V32.7143ZM62.8571 32.7143H68V37.8571H62.8571V32.7143ZM57.7143 27.5714H62.8571V32.7143H57.7143V27.5714ZM52.5714 27.5714H57.7143V32.7143H52.5714V27.5714ZM52.5714 32.7143H57.7143V37.8571H52.5714V32.7143ZM47.4286 32.7143H52.5714V37.8571H47.4286V32.7143ZM42.2857 32.7143H47.4286V37.8571H42.2857V32.7143ZM42.2857 27.5714H47.4286V32.7143H42.2857V27.5714ZM37.1429 27.5714H42.2857V32.7143H37.1429V27.5714ZM47.4286 27.5714H52.5714V32.7143H47.4286V27.5714ZM37.1429 32.7143H42.2857V37.8571H37.1429V32.7143ZM32 32.7143H37.1429V37.8571H32V32.7143ZM32 37.8571H37.1429V43H32V37.8571ZM37.1429 37.8571H42.2857V43H37.1429V37.8571ZM37.1429 43H42.2857V48.1429H37.1429V43ZM37.1429 48.1429H42.2857V53.2857H37.1429V48.1429ZM32 48.1429H37.1429V53.2857H32V48.1429ZM32 43H37.1429V48.1429H32V43ZM37.1429 53.2857H42.2857V58.4286H37.1429V53.2857ZM42.2857 53.2857H47.4286V58.4286H42.2857V53.2857ZM42.2857 48.1429H47.4286V53.2857H42.2857V48.1429ZM47.4286 48.1429H52.5714V53.2857H47.4286V48.1429ZM52.5714 48.1429H57.7143V53.2857H52.5714V48.1429ZM57.7143 48.1429H62.8571V53.2857H57.7143V48.1429ZM57.7143 53.2857H62.8571V58.4286H57.7143V53.2857ZM52.5714 53.2857H57.7143V58.4286H52.5714V53.2857ZM47.4286 53.2857H52.5714V58.4286H47.4286V53.2857ZM62.8571 53.2857H68V58.4286H62.8571V53.2857ZM62.8571 58.4286H68V63.5714H62.8571V58.4286ZM57.7143 58.4286H62.8571V63.5714H57.7143V58.4286ZM52.5714 68.7143H57.7143V73.8571H52.5714V68.7143ZM57.7143 68.7143H62.8571V73.8571H57.7143V68.7143ZM57.7143 63.5714H62.8571V68.7143H57.7143V63.5714ZM62.8571 63.5714H68V68.7143H62.8571V63.5714ZM62.8571 68.7143H68V73.8571H62.8571V68.7143ZM57.7143 73.8571H62.8571V79H57.7143V73.8571ZM52.5714 73.8571H57.7143V79H52.5714V73.8571ZM47.4286 73.8571H52.5714V79H47.4286V73.8571ZM42.2857 73.8571H47.4286V79H42.2857V73.8571ZM37.1429 73.8571H42.2857V79H37.1429V73.8571ZM37.1429 68.7143H42.2857V73.8571H37.1429V68.7143ZM42.2857 68.7143H47.4286V73.8571H42.2857V68.7143ZM47.4286 68.7143H52.5714V73.8571H47.4286V68.7143ZM32 68.7143H37.1429V73.8571H32V68.7143ZM32 63.5714H37.1429V68.7143H32V63.5714ZM37.1429 63.5714H42.2857V68.7143H37.1429V63.5714Z" fill="black"/>
</svg>
