<svg width="101" height="106" viewBox="0 0 101 106" fill="none" xmlns="http://www.w3.org/2000/svg">
<rect x="2" y="2" width="97" height="97" rx="8" stroke="black" stroke-width="4"/>
<path d="M35.2857 74.8571H40.4286V80H35.2857V74.8571ZM35.2857 69.7143H40.4286V74.8571H35.2857V69.7143ZM35.2857 64.5714H40.4286V69.7143H35.2857V64.5714ZM30.1429 69.7143H35.2857V74.8571H30.1429V69.7143ZM30.1429 64.5714H35.2857V69.7143H30.1429V64.5714ZM25 64.5714H30.1429V69.7143H25V64.5714ZM30.1429 59.4286H35.2857V64.5714H30.1429V59.4286ZM40.4286 64.5714H45.5714V69.7143H40.4286V64.5714ZM40.4286 69.7143H45.5714V74.8571H40.4286V69.7143ZM45.5714 64.5714H50.7143V69.7143H45.5714V64.5714ZM25 59.4286H30.1429V64.5714H25V59.4286ZM30.1429 54.2857H35.2857V59.4286H30.1429V54.2857ZM25 54.2857H30.1429V59.4286H25V54.2857ZM25 49.1429H30.1429V54.2857H25V49.1429ZM30.1429 49.1429H35.2857V54.2857H30.1429V49.1429ZM30.1429 44H35.2857V49.1429H30.1429V44ZM25 44H30.1429V49.1429H25V44ZM25 38.8571H30.1429V44H25V38.8571ZM30.1429 38.8571H35.2857V44H30.1429V38.8571ZM25 28.5714H30.1429V33.7143H25V28.5714ZM30.1429 28.5714H35.2857V33.7143H30.1429V28.5714ZM30.1429 33.7143H35.2857V38.8571H30.1429V33.7143ZM25 33.7143H30.1429V38.8571H25V33.7143ZM61 74.8571H66.1429V80H61V74.8571ZM61 69.7143H66.1429V74.8571H61V69.7143ZM61 64.5714H66.1429V69.7143H61V64.5714ZM55.8571 69.7143H61V74.8571H55.8571V69.7143ZM55.8571 64.5714H61V69.7143H55.8571V64.5714ZM50.7143 64.5714H55.8571V69.7143H50.7143V64.5714ZM50.7143 59.4286H55.8571V64.5714H50.7143V59.4286ZM66.1429 64.5714H71.2857V69.7143H66.1429V64.5714ZM66.1429 69.7143H71.2857V74.8571H66.1429V69.7143ZM66.1429 59.4286H71.2857V64.5714H66.1429V59.4286ZM71.2857 64.5714H76.4286V69.7143H71.2857V64.5714ZM71.2857 59.4286H76.4286V64.5714H71.2857V59.4286ZM45.5714 59.4286H50.7143V64.5714H45.5714V59.4286ZM66.1429 28.5714H71.2857V33.7143H66.1429V28.5714ZM71.2857 28.5714H76.4286V33.7143H71.2857V28.5714ZM71.2857 33.7143H76.4286V38.8571H71.2857V33.7143ZM71.2857 38.8571H76.4286V44H71.2857V38.8571ZM71.2857 44H76.4286V49.1429H71.2857V44ZM71.2857 49.1429H76.4286V54.2857H71.2857V49.1429ZM66.1429 49.1429H71.2857V54.2857H66.1429V49.1429ZM66.1429 54.2857H71.2857V59.4286H66.1429V54.2857ZM66.1429 44H71.2857V49.1429H66.1429V44ZM66.1429 38.8571H71.2857V44H66.1429V38.8571ZM66.1429 33.7143H71.2857V38.8571H66.1429V33.7143ZM71.2857 54.2857H76.4286V59.4286H71.2857V54.2857ZM50.7143 54.2857H55.8571V59.4286H50.7143V54.2857ZM45.5714 54.2857H50.7143V59.4286H45.5714V54.2857ZM45.5714 49.1429H50.7143V54.2857H45.5714V49.1429ZM50.7143 49.1429H55.8571V54.2857H50.7143V49.1429ZM50.7143 44H55.8571V49.1429H50.7143V44ZM45.5714 44H50.7143V49.1429H45.5714V44ZM45.5714 38.8571H50.7143V44H45.5714V38.8571ZM50.7143 38.8571H55.8571V44H50.7143V38.8571ZM45.5714 28.5714H50.7143V33.7143H45.5714V28.5714ZM50.7143 28.5714H55.8571V33.7143H50.7143V28.5714ZM50.7143 33.7143H55.8571V38.8571H50.7143V33.7143ZM45.5714 33.7143H50.7143V38.8571H45.5714V33.7143Z" fill="black"/>
</svg>
