<svg width="492" height="737" viewBox="0 0 492 737" fill="none" xmlns="http://www.w3.org/2000/svg">
<g id="Plant2">
<g id="branch">
<path d="M296.239 736C212.827 644.571 99.2878 432.449 300.292 207.38C319.177 185.66 338.302 167.254 355.5 152.5C334.912 170.84 316.571 189.153 300.292 207.38C207.177 314.475 119.906 502.115 298.239 729.5L296.239 736Z" fill="#0E3C05"/>
<path d="M296.239 736C206.072 637.167 80.7 397.3 355.5 152.5C253.5 240 83.7386 456 298.239 729.5L296.239 736Z" stroke="#0E3C05"/>
</g>
<path id="l1" d="M246.5 666.5C181.167 641.167 40.6 579.9 1 537.5C22.1667 575.5 100.9 654.5 246.5 666.5Z" fill="#25885D" stroke="#25885D"/>
<path id="l2" d="M230 639.5C180 618.667 64.9 543.1 4.5 407.5C57.6667 462.167 177.2 585.1 230 639.5Z" fill="#25885D" stroke="#25885D"/>
<path id="l3" d="M214 599.5C171 566 74.1 462.1 30.5 314.5C85 393.333 198 560.7 214 599.5Z" fill="#25885D" stroke="#25885D"/>
<path id="l4" d="M209 564C227.5 529.5 274.7 453.6 315.5 426C273.333 439 193 484.8 209 564Z" fill="#25885D" stroke="#25885D"/>
<path id="l5" d="M195.5 507C213.833 461.333 277.2 368.3 384 361.5C330.667 343.5 218.3 347.4 195.5 507Z" fill="#25885D" stroke="#25885D"/>
<path id="l6" d="M190.5 497C147.667 462.5 62.2 353.9 63 195.5C88.9999 274.167 150.9 444.6 190.5 497Z" fill="#25885D" stroke="#25885D"/>
<path id="l7" d="M138.5 288.5C170.1 340.9 186.333 414.667 190.5 445C197.167 416.5 195.087 358.163 179.5 323.5C146 249 125 194.5 113.5 119C108.667 153.667 106.9 236.1 138.5 288.5Z" fill="#25885D" stroke="#25885D"/>
<path id="l8" d="M193 432.5C233.667 384.833 324.1 288.8 360.5 286C318.333 281.167 225.8 303.7 193 432.5Z" fill="#25885D" stroke="#25885D"/>
<path id="l9" d="M206.5 364C195.833 290.5 168.8 126.4 146 58C176.833 96.3333 232.1 211.2 206.5 364Z" fill="#25885D" stroke="#25885D"/>
<path id="l10" d="M236.5 300C217 231.333 197.6 75.4 276 1C265.333 32.1667 242.5 135.6 236.5 300Z" fill="#25885D" stroke="#25885D"/>
<path id="l11" d="M265 250C252.5 212.167 242.9 113.4 304.5 21C298 76.1667 281 199.2 265 250Z" fill="#25885D" stroke="#25885D"/>
<path id="l12" d="M304.5 200.5C301.167 153 315.6 49.1 400 13.5C378 54.3333 328.1 148.9 304.5 200.5Z" fill="#25885D" stroke="#25885D"/>
<path id="l13" d="M345.5 162C372.333 134.667 438.9 75.6 490.5 58C462.5 95.5 394.3 168.8 345.5 162Z" fill="#25885D" stroke="#25885D"/>
</g>
</svg>
